<?xml version="1.0" standalone="no"?>
<!DOCTYPE svg PUBLIC "-//W3C//DTD SVG 20010904//EN"
 "http://www.w3.org/TR/2001/REC-SVG-20010904/DTD/svg10.dtd">
<svg version="1.0" xmlns="http://www.w3.org/2000/svg"
 width="1208.000000pt" height="1208.000000pt" viewBox="0 0 1208.000000 1208.000000"
 preserveAspectRatio="xMidYMid meet">
<metadata>
Created by potrace 1.11, written by Peter Selinger 2001-2013
</metadata>
<g transform="translate(0.000000,1208.000000) scale(0.100000,-0.100000)"
fill="#000000" stroke="none">
<path d="M4547 12014 c-1 -1 -33 -4 -72 -8 -387 -34 -763 -285 -954 -637 -40
-75 -86 -185 -95 -231 -3 -13 -10 -39 -16 -58 -6 -19 -13 -51 -16 -70 -3 -19
-7 -46 -11 -60 -9 -39 -10 -9706 0 -9785 13 -115 14 -118 27 -165 45 -166 114
-313 204 -433 113 -151 276 -288 437 -367 80 -39 220 -92 227 -86 2 3 13 1 24
-5 11 -6 31 -13 44 -15 13 -2 36 -6 52 -9 15 -3 56 -9 92 -12 90 -9 3011 -8
3085 0 87 11 109 14 147 23 18 4 35 8 38 9 3 0 10 3 15 6 6 4 24 9 40 13 35 9
188 68 195 76 3 3 25 16 50 29 40 21 108 66 148 96 95 73 303 310 294 337 -1
4 2 8 8 8 5 0 10 5 10 10 0 6 11 27 24 48 51 81 109 268 131 422 10 65 10
9660 1 9755 -5 44 -10 91 -12 105 -5 40 -33 143 -44 162 -6 10 -10 25 -10 33
0 8 -4 23 -9 33 -6 9 -26 51 -47 92 -36 74 -96 172 -121 198 -8 8 -26 30 -41
49 -36 49 -132 139 -195 185 -29 21 -57 42 -64 48 -18 15 -173 99 -173 94 0
-2 -10 2 -22 10 -28 17 -176 64 -227 72 -20 3 -45 8 -56 11 -11 4 -31 8 -45
10 -23 4 -3059 11 -3063 7z"/>
</g>
</svg>
